<svg id="图层_1" data-name="图层 1" xmlns="http://www.w3.org/2000/svg" viewBox="0 0 28.8 28.8"><defs><style>.cls-1{fill:#4fc3f7;}.cls-2{fill:none;}</style></defs><path class="cls-1" d="M23.21,2a1.58,1.58,0,0,1,.43,1.29,3,3,0,0,1-.43,1.29l-1.5,1.5h1.72a6.2,6.2,0,0,1,3.87,1.5,5.21,5.21,0,0,1,1.5,3.87V22.18a5.31,5.31,0,0,1-5.37,5.37H5.37A5.31,5.31,0,0,1,0,22.18V11.43A5.46,5.46,0,0,1,5.37,6.06H7.09L5.37,4.34a1.68,1.68,0,0,1-.43-1.72A2,2,0,0,1,6.23,1.33,1.68,1.68,0,0,1,8,1.76l3.87,3.87c0,.22.22.22.22.43h4.51c0-.21.21-.21.21-.43L20.85,2a1.58,1.58,0,0,1,1.29-.43A.78.78,0,0,1,23.21,2Zm.22,7.73H5.37a1.67,1.67,0,0,0-1.72,1.51v11A1.7,1.7,0,0,0,5.37,23.9H23.43a1.7,1.7,0,0,0,1.72-1.72v-11a1.67,1.67,0,0,0-1.72-1.51ZM9,13.15a1.7,1.7,0,0,1,1.72,1.72v1.94a1.72,1.72,0,0,1-3.44,0V15.09A1.75,1.75,0,0,1,9,13.15Zm10.74,0a1.69,1.69,0,0,1,1.72,1.72v1.94a1.72,1.72,0,0,1-3.44,0V15.09A1.76,1.76,0,0,1,19.77,13.15Z"/><rect class="cls-2" width="28.8" height="28.8"/></svg>