<svg id="图层_1" data-name="图层 1" xmlns="http://www.w3.org/2000/svg" viewBox="0 0 28.8 28.7"><defs><style>.cls-1{fill:#4fc3f7;}</style></defs><path class="cls-1" d="M22.9,12.7h-.8a.1.1,0,0,0-.1.1v.1l.1,1.3h1V12.9A.22.22,0,0,0,22.9,12.7Z"/><path class="cls-1" d="M23.6,0H5.2A5.29,5.29,0,0,0,0,5.2V23.5a5.21,5.21,0,0,0,5.1,5.2H23.6a5.08,5.08,0,0,0,5.2-5.1V5.2A5.23,5.23,0,0,0,23.6,0Zm1.8,11.1c1.1-.8,1.9,1.2.7,1.5a1.62,1.62,0,0,1-1,0,.1.1,0,0,1-.1-.1C25.1,12.1,25,11.4,25.4,11.1ZM3,18.7H2.9l-.8-1.9a.76.76,0,0,0,.1-.4c.1-1.2.2-2.4.3-3.7a.1.1,0,0,1,.1-.1H4.1c-.1,1.2-.2,2.4-.3,3.5A5,5,0,0,1,3,18.7Zm2.3.8H4.7l-.6-1.4h.8a.22.22,0,0,0,.2-.2V10.5a.1.1,0,0,1,.1-.1H6.6c.1,0,.1,0,.1.1v7.4C6.8,18.9,6.4,19.6,5.3,19.5Zm3.9-.9c-.1.2-.1.2-.2,0a7.41,7.41,0,0,1-.8-3A28.25,28.25,0,0,1,8,12.7a.1.1,0,0,1,.1-.1H9.6a.1.1,0,0,1,.1.1c.1,1.1.2,2.2.2,3.3,0,.3.1.5.1.7s0,.1-.1.2Zm4-.8-.7,1.7H10.3l-.3-.1s-.1,0,0-.1l.7-1.6.1-.1a9.66,9.66,0,0,0,2.4.1S13.3,17.7,13.2,17.8Zm-1.7-.7c-.6,0-.7-.5-.5-1l.7-1.8c-.4,0-1.1.1-1.3-.4-.1-.3.1-.7.2-1,.4-.8.7-1.7,1.1-2.5a.1.1,0,0,1,.1-.1h1.5l-.9,2.1v.1l.1.1H14c-.4.9-.8,1.8-1.1,2.7,0,.1-.1.2,0,.2s.1.1.2.1h.8s.1,0,0,.1L13.4,17l-.1.1Zm1.9,2.4.7-1.7.1-.1h1.3a.1.1,0,0,0,.1-.1v-5a.1.1,0,0,0-.1-.1h-.9a.1.1,0,0,1-.1-.1V11h3.6a.1.1,0,0,1,.1.1v1.6a.1.1,0,0,1-.1.1h-.9a.1.1,0,0,0-.1.1v5a.1.1,0,0,0,.1.1h1.4a.1.1,0,0,1,.1.1l.2,1.4Zm13.3-1.8a2.68,2.68,0,0,1-.2,1.1,1.34,1.34,0,0,1-1.3.8H24l-.6-1.4h1.3c.1,0,.1,0,.2-.1s.1-.1.1-.2V16.6a.53.53,0,0,0-.6-.6H22a.1.1,0,0,0-.1.1v3.6H20.3V16.1a.1.1,0,0,0-.1-.1H18.7a.1.1,0,0,1-.1-.1V14.3c0-.1,0-.1.1-.1h1.6V12.7a.1.1,0,0,0-.1-.1h-.9a.1.1,0,0,1-.1-.1V10.9a.1.1,0,0,1,.1-.1h1a.1.1,0,0,0,.1-.1l.1-.4h1.6v.6a.1.1,0,0,0,.1.1c1,0,1.9,0,2.4,1a5.34,5.34,0,0,1,.2,2.2.1.1,0,0,0,.1.1h.3C27.1,14.5,26.7,16.3,26.7,17.7Z"/></svg>