<svg id="图层_1" data-name="图层 1" xmlns="http://www.w3.org/2000/svg" viewBox="0 0 28.8 28.8"><defs><style>.cls-1{fill:#4fc3f7;}.cls-2{fill:#fff;}</style></defs><path class="cls-1" d="M28.8,23.57V5.23A5.24,5.24,0,0,0,23.57,0H5.23A5.24,5.24,0,0,0,0,5.23V23.57A5.25,5.25,0,0,0,5.15,28.8h18.5a5.25,5.25,0,0,0,5.15-5.23"/><path class="cls-2" d="M20.46,10.29h1.62v.58s0,.06.07.06c1,0,1.93,0,2.42,1a4.86,4.86,0,0,1,.22,2.17.07.07,0,0,0,.06.07l.33,0c1.91.23,1.53,2,1.54,3.45a2.63,2.63,0,0,1-.17,1.08,1.5,1.5,0,0,1-1.27.82H24.09l-.61-1.41s0,0,0,0a.05.05,0,0,1,0,0h1.29A.27.27,0,0,0,25,18a.3.3,0,0,0,.08-.2c0-.43,0-.86,0-1.29s-.18-.59-.55-.6H22.14s-.06,0-.06.07v3.58H20.46v-3.6a.06.06,0,0,0-.06-.06H18.88a.07.07,0,0,1-.07-.07V14.24a.07.07,0,0,1,.07-.08h1.5s0,0,.05,0a.08.08,0,0,0,0-.05V12.73a.1.1,0,0,0-.09-.09h-.92c-.05,0-.07,0-.07-.08V11c0-.05,0-.07.06-.07h1s.06,0,.06-.07v-.57Zm1.68,3.88h1a.06.06,0,0,0,.05,0s0,0,0,0V12.84a.17.17,0,0,0-.16-.18h-.81a.17.17,0,0,0-.11.06.19.19,0,0,0-.05.13V14.1a.07.07,0,0,0,.06.07Zm-10.4.11c-.39,0-1.09.12-1.25-.39a1.71,1.71,0,0,1,.25-1l1.08-2.51a.08.08,0,0,1,.07,0h1.55s0,0,0,0,0,0,0,0l-.89,2.09a.16.16,0,0,0,0,.15.12.12,0,0,0,.12.07H14l0,0s0,0,0,.05c-.38.89-.77,1.78-1.15,2.66a.4.4,0,0,0,0,.19.14.14,0,0,0,.15.14h.83c.05,0,.07,0,.05.07l-.54,1.28a.12.12,0,0,1-.11.07c-.85,0-1.44,0-1.78,0-.56,0-.7-.51-.48-1l.77-1.8a0,0,0,0,0,0,0s0,0,0,0ZM5.32,19.54H4.71l-.59-1.39a0,0,0,0,1,0,0,.05.05,0,0,1,0,0H5a.2.2,0,0,0,.19-.2h0l0-7.4a.08.08,0,0,1,.07-.08H6.73a.1.1,0,0,1,.1.11V17.9c0,1-.47,1.67-1.51,1.64Z"/><path class="cls-2" d="M18.87,19.54H13.39l.73-1.65a.12.12,0,0,1,.1-.07h1.34s.07,0,.07-.08v-5s0-.07-.06-.07h-.89a.07.07,0,0,1-.07-.07V11a0,0,0,0,1,0,0h3.63s.06,0,.06.07v1.59a.06.06,0,0,1-.07.07h-.9s-.06,0-.06.07v5c0,.05,0,.07.07.07h1.42a.05.05,0,0,1,.06.06v1.65Zm6.52-8.46c1.12-.76,1.91,1.2.68,1.53a2.61,2.61,0,0,1-.95,0,.05.05,0,0,1-.06-.06c0-.47-.1-1.18.33-1.47ZM9.94,16.85,9.2,18.58c-.07.15-.14.15-.22,0a6.93,6.93,0,0,1-.84-3Q8,14.15,7.93,12.72s0-.07.06-.07h1.5s.06,0,.07.07c.07,1.11.15,2.21.24,3.32a2.47,2.47,0,0,0,.14.7A.11.11,0,0,1,9.94,16.85Zm-7.88-.06v-.07a.79.79,0,0,0,.13-.33c.11-1.22.2-2.44.27-3.67q0-.06.06-.06H4.05l0,0s0,0,0,0C4,13.85,3.93,15,3.83,16.1A5,5,0,0,1,3,18.68s-.06,0-.08,0Zm10.45,2.75H10.29L10,19.43s0,0,0-.08l.7-1.6a.08.08,0,0,1,.1-.05,9.79,9.79,0,0,0,2.42.13c.05,0,.06,0,0,.07l-.72,1.64Z"/></svg>