<svg id="图层_1" data-name="图层 1" xmlns="http://www.w3.org/2000/svg" xmlns:xlink="http://www.w3.org/1999/xlink" viewBox="0 0 40 40"><defs><style>.cls-1{fill:none;}.cls-2{clip-path:url(#clip-path);}.cls-3{fill:#3c64c8;}.cls-4{fill:#f3f3f3;}.cls-5{fill:#bdc5de;}</style><clipPath id="clip-path"><rect class="cls-1" width="40" height="40" rx="5"/></clipPath></defs><g class="cls-2"><rect class="cls-3" width="40" height="40"/><path class="cls-4" d="M31.25,20.78c-2.19-.55-6.17-.94-7.34-2.58a2.71,2.71,0,0,1,.23-2.65c.1-.13-.16-.75-.39-.71,1.16-2.06,2.47-3.55,2.27-4.76-.27-1.56-1.9-2.37-2.58-2.74-2.8-1.5-5.35-1-6.25-.15s-.71,1.09-1.41,1.64a1.64,1.64,0,0,1-2.19-.39A6.74,6.74,0,0,1,13.28,7c-.23-.78-1.48,1.49-1.25,2.5s1.26,1,1.8,1.41c1.21.83-4,5.91-4,9.06,0,1.09,2.15,3.83,5.19,6.94-3.77.35-8.68,2-9.09,1.58-1.1-1-2.74-.78-3.75-.71A5,5,0,0,0,0,28.59V40H40V25.23C40,23.83,33.77,21.41,31.25,20.78Z"/><path class="cls-5" d="M35.16,26c-1.92-.5-7.29-2.2-10.39-4.22-2-1.29-2.27-2.66-2.11-3.67.18-1.17,2.15-3,2.73-4.15A8.37,8.37,0,0,0,26,10.23c.16,1.24-3.07,4.46-4.48,4.46-.62,0-.45-1.07-1.17-2a6.75,6.75,0,0,0-3.12-2.1c-1.6-.36-3.35.35-3.91.07a3.76,3.76,0,0,0-5,2.89C7.89,15.94,4,13.05,3.2,14a5.65,5.65,0,0,0-.62,4.3,13.07,13.07,0,0,0,4,4.14c1.15.68,1.49.31,2.35,1S9,25.55,7.58,25.86s-2.42,1.56-1.72,2.58c.4.58,2.75.41,5.47.23,2.42-.15,2.42-.86,3.51-.62.87.18.24,2.34.63,3.2s2.7,1.5,4.53,2.66a7.28,7.28,0,0,1,2.81,3c.07.73-1.77,1.31-3.12.86-1.64-.54-2.58-3.28-5.16-4.14-1.62-.54-3.11.08-5.55-.07a13.34,13.34,0,0,0-6.09.54A3.38,3.38,0,0,0,.7,37c-.08,1.11,1.08,1.24,2,1.41,1.25.23,3.22-.63,5-.63,2.42,0,7.44,1.33,12,1.33,1.7,0,5-.78,7-.78A4.77,4.77,0,0,1,29.84,40h4.22a46.75,46.75,0,0,0-7.42-8.13,62.37,62.37,0,0,0-8-5.62c-3.94-2.15-5.92-2.06-5.78-3.05.44-3,3.91-1.33,5.55-2.5,1.09-.77-.63-2.11-3-3-1.86-.73-1-3.95.47-4.07.41,0,1.6.31,3,1.8A6.94,6.94,0,0,1,20,17.66a15,15,0,0,0,2.27,5.46c2,2.81,6,5,8.35,5.94A38.39,38.39,0,0,0,40,31.25V26.72A25.57,25.57,0,0,1,35.16,26Z"/></g></svg>